<svg width="70" height="27" viewBox="0 0 70 27" fill="none" xmlns="http://www.w3.org/2000/svg">
<g clip-path="url(#clip0_853_8067)">
<path fill-rule="evenodd" clip-rule="evenodd" d="M1.55724 13.5056L1.27148 13.2223C2.34997 12.1258 4.14744 12.0984 5.25357 13.1949L5.28123 13.2223L4.98626 13.5056C4.03682 12.5644 2.50667 12.5644 1.58489 13.4782C1.58489 13.4782 1.57567 13.4873 1.55724 13.5056ZM2.56198 14.4468L2.29466 14.1818C2.82008 13.6335 3.69577 13.6335 4.24883 14.1544L4.27649 14.1818L4.00917 14.4468C3.82482 14.264 3.5575 14.1635 3.2994 14.1635C3.0413 14.1635 2.77399 14.264 2.56198 14.4468ZM3.2994 15.1504L2.80164 14.6569C2.93069 14.529 3.11504 14.4468 3.2994 14.4468C3.48376 14.4468 3.66811 14.529 3.79716 14.6569L3.2994 15.1504ZM3.2994 13.4782C3.75107 13.4782 4.16587 13.6609 4.4885 13.9716L4.8019 13.6609C3.98152 12.8202 2.66337 12.802 1.82455 13.6061C1.82455 13.6061 1.80612 13.6244 1.76925 13.6609L2.08265 13.9716C2.39606 13.6609 2.84773 13.4782 3.2994 13.4782Z" fill="#517BBA"/>
<path fill-rule="evenodd" clip-rule="evenodd" d="M1.37317 15.4976H5.1156C2.424 22.2413 1.9539 26.2162 4.69158 26.1066C-1.29077 26.4721 -0.525693 20.697 1.37317 15.4976Z" fill="#517BBA"/>
<path fill-rule="evenodd" clip-rule="evenodd" d="M4.83008 5.14455C8.2591 -0.392931 13.8174 -0.941197 17.7719 1.06911C22.1503 3.28958 23.5146 8.46155 22.4084 13.0396C21.4313 17.1972 18.6937 20.9803 15.1356 23.4109C12.951 24.873 10.4714 25.869 7.89039 26.2619C9.89065 25.604 11.6605 24.4618 13.0616 22.8901C13.9281 21.9489 14.6747 20.9254 15.3015 19.8289C17.3018 17.1333 18.2512 14.5016 18.3065 12.1989C18.4356 9.11947 17.0713 6.03091 14.223 4.62369C11.7158 3.37182 8.36971 3.41751 4.8393 5.14455" fill="#E06E3D"/>
<path fill-rule="evenodd" clip-rule="evenodd" d="M2.24936 11.3948C5.04235 5.90298 10.7943 5.5192 14.1956 7.89501C15.5414 8.8362 16.4632 10.216 16.8319 11.8151C17.302 13.8254 16.961 15.918 16.1959 17.9009C15.4861 19.7558 14.4261 21.4554 13.0618 22.9175C11.1353 25.0374 8.36998 26.6548 5.42028 26.6C4.23118 26.6 3.06974 26.2893 2.07422 25.7136C3.47532 26.3898 5.63229 26.1614 6.95044 25.6131C9.13506 24.7268 10.9049 22.8718 12.011 20.8341C13.3845 18.3212 14.4353 14.3006 12.2783 11.9979C10.2965 9.85049 6.39737 9.11947 2.25857 11.3948" fill="#489E53"/>
<path d="M67.8881 14.529L68.5426 12.6466H68.3029C67.8789 12.6192 67.4825 12.7746 67.1968 13.0944C66.9018 13.3777 66.699 13.7432 66.616 14.1635C66.5607 14.3463 66.5607 14.529 66.6437 14.7118C66.7267 14.8397 66.8557 14.9219 67.0124 14.9219C67.3258 14.8671 67.6208 14.7392 67.8789 14.529M69.9898 11.7877L68.5887 15.653H67.4549L67.5839 15.2875C67.2429 15.5525 66.8188 15.7078 66.3948 15.7352C66.0538 15.7626 65.7127 15.5525 65.5468 15.2692C65.3624 14.9037 65.3071 14.4559 65.4454 14.0447C65.5744 13.3685 65.9708 12.738 66.5515 12.3177C67.1875 11.8425 67.9526 11.6141 68.7361 11.6415C69.1325 11.6689 69.5565 11.6963 69.9713 11.7968M65.3532 11.742L63.9337 15.6895H62.7999L64.2194 11.742H65.3532ZM64.5605 10.6455C64.6434 10.3074 64.9292 10.0424 65.2702 10.0424C65.4269 10.0424 65.556 10.0972 65.639 10.2251C65.7496 10.3531 65.768 10.5176 65.7219 10.6455C65.6943 10.8282 65.5929 10.9562 65.4546 11.0932C65.3256 11.2029 65.1688 11.2486 65.0029 11.2486C64.8739 11.2486 64.7172 11.1937 64.6342 11.0932C64.5513 10.9653 64.5328 10.81 64.5513 10.6455M61.0208 14.7483L61.7583 12.7106C61.6569 12.6832 61.5739 12.6832 61.4725 12.6832C61.1038 12.6832 60.7351 12.7837 60.4401 13.0213C60.1544 13.2315 59.9608 13.5421 59.8871 13.8528C59.8041 14.0904 59.8594 14.328 60.0161 14.529C60.2005 14.7118 60.4401 14.8123 60.6982 14.794C60.7996 14.794 60.9102 14.794 61.0116 14.7392M63.9152 9.74998L61.832 15.6347C61.3803 15.7169 60.9379 15.7626 60.4862 15.7626C59.8041 15.7626 59.2971 15.5799 58.9837 15.2418C58.6703 14.9037 58.5597 14.4285 58.698 13.8528C58.827 13.2223 59.1681 12.6741 59.675 12.2811C60.2005 11.8608 60.8365 11.6324 61.5186 11.6324C61.703 11.6324 61.8873 11.6598 62.0717 11.6872L62.7538 9.7317L63.9152 9.75912V9.74998ZM56.1907 11.7329L56.034 12.1806C56.4304 11.8699 56.9281 11.6872 57.4628 11.6598C57.7301 11.6324 57.9882 11.7603 58.1449 11.9705C58.2739 12.2537 58.3016 12.5735 58.2002 12.8568C58.1725 12.9847 58.1449 13.0944 58.0988 13.1949L57.2323 15.653H56.0985L56.9466 13.3046C56.9742 13.2223 57.0019 13.1766 57.0295 13.0944C57.1125 12.7015 57.0295 12.5187 56.7899 12.5187C56.5502 12.5187 56.1538 12.7289 55.7114 13.1218L54.8173 15.653H53.6835L55.1122 11.7055H56.2184V11.7329H56.1907ZM54.5868 9.74998L52.4759 15.6804H51.2592L53.3701 9.74998H54.5868ZM49.895 9.74998L47.7841 15.6804H46.6779L48.7888 9.74998H49.895ZM44.8897 14.529L45.5441 12.6466H45.3045C44.8805 12.6192 44.4841 12.7746 44.1984 13.0944C43.9126 13.3777 43.7006 13.7432 43.6176 14.1361C43.5623 14.3189 43.5623 14.529 43.6453 14.6844C43.7282 14.8123 43.8573 14.8945 44.014 14.8945C44.3274 14.8397 44.65 14.7392 44.8805 14.529M46.9913 11.7877L45.6179 15.6804H44.4841L44.6132 15.3149C44.2721 15.5799 43.8481 15.7352 43.4241 15.7626C43.0553 15.79 42.7419 15.6073 42.5576 15.2966C42.3732 14.9037 42.3179 14.4833 42.4562 14.0721C42.5852 13.3959 42.9816 12.7654 43.5623 12.3451C44.1983 11.8699 44.9634 11.6415 45.7469 11.6689C46.1433 11.6689 46.5673 11.6963 46.9821 11.7968M42.0783 10.9105L41.7372 11.7511H42.5576L42.2165 12.6101H41.3777L40.8799 13.8894C40.8246 13.9899 40.797 14.0996 40.7785 14.2001C40.6956 14.5382 40.7785 14.7209 41.0182 14.7209C41.2579 14.6935 41.4883 14.6204 41.7003 14.4833L41.4607 15.525C41.1473 15.6804 40.797 15.79 40.4283 15.79C40.1149 15.8174 39.8199 15.6804 39.6355 15.4245C39.4788 15.1413 39.4235 14.794 39.5341 14.4833C39.5618 14.3737 39.6171 14.2458 39.6355 14.1452L40.2439 12.6284H39.4788L39.8199 11.7694H40.585L40.8984 10.9379L42.0875 10.9105H42.0783ZM39.3129 11.7511L37.9118 15.6987H36.778L38.1791 11.7511H39.3129ZM38.5478 10.6546C38.5755 10.4993 38.6769 10.3439 38.8152 10.2343C38.9442 10.1338 39.1101 10.0515 39.2668 10.0515C39.4235 10.0515 39.5526 10.1064 39.6355 10.2343C39.7185 10.3622 39.7369 10.5267 39.7185 10.6546C39.6632 10.81 39.5894 10.9653 39.4512 11.1024C39.3221 11.212 39.1562 11.2577 38.9995 11.2577C38.8705 11.2577 38.7045 11.2029 38.6308 11.1024C38.5478 10.9744 38.5294 10.8191 38.5478 10.6546ZM34.8884 16.5576C34.916 16.3749 34.7778 16.2469 34.4367 16.1647L33.9666 16.0642C33.8099 16.0642 33.6532 16.119 33.5149 16.1647C33.3306 16.2195 33.2015 16.3474 33.1739 16.5028C33.1186 16.7861 33.3582 16.9231 33.9113 16.9231C34.1509 16.9231 34.3906 16.8957 34.5934 16.8409C34.7224 16.7861 34.8331 16.6855 34.8884 16.5485M34.8331 13.9351C35.2571 13.9351 35.5152 13.6518 35.6258 13.0761C35.6811 12.9482 35.6534 12.7929 35.5705 12.6558C35.4875 12.5553 35.3585 12.5004 35.2294 12.5004C34.8054 12.5004 34.5473 12.7837 34.409 13.3594C34.3076 13.7523 34.4644 13.9351 34.8331 13.9351ZM37.5523 11.742L37.2666 12.601H36.6582C36.7135 12.8111 36.7135 13.0213 36.6582 13.2315C36.5752 13.6518 36.3448 13.9899 35.9945 14.2549C35.6258 14.5382 35.2018 14.6752 34.7317 14.6752C34.5473 14.6752 34.3906 14.6752 34.2063 14.7026C34.0956 14.7026 34.0219 14.7849 34.0219 14.8854C33.9942 14.9402 34.0219 14.9676 34.0956 15.0133C34.363 15.0956 34.6211 15.1413 34.8884 15.1687C35.3585 15.2509 35.6811 15.3788 35.8378 15.589C35.9945 15.8266 36.0775 16.1099 35.9945 16.3749C35.8101 17.2338 35.0451 17.6541 33.7546 17.6541C33.3029 17.6816 32.8605 17.5993 32.4641 17.3891C32.1968 17.2612 32.0677 16.9414 32.1507 16.6581C32.2336 16.2926 32.63 15.9819 33.2845 15.7718C32.9987 15.6438 32.8605 15.324 32.9158 15.0407C32.9987 14.6752 33.3121 14.4376 33.8375 14.3097C33.4688 14.0447 33.3121 13.6061 33.4135 13.1584C33.5149 12.738 33.7546 12.3725 34.1233 12.1167C34.492 11.8334 34.9621 11.6689 35.4414 11.6689H37.5523V11.7511V11.742ZM33.0725 11.742L31.6714 15.6895H30.5376L31.9387 11.742H33.0725ZM32.2797 10.6455C32.3074 10.4901 32.4088 10.3348 32.547 10.2251C32.6761 10.1246 32.8328 10.0698 32.9987 10.0424C33.1554 10.0424 33.2845 10.0972 33.3674 10.2251C33.4504 10.3531 33.4688 10.5176 33.4504 10.6455C33.3951 10.8282 33.3213 10.9562 33.1831 11.0932C33.054 11.2029 32.8973 11.2486 32.7037 11.2486C32.5747 11.2486 32.418 11.1937 32.335 11.0932C32.2521 10.9653 32.2336 10.81 32.2797 10.6455ZM27.2929 10.746L25.8918 14.6935H27.0256C27.6063 14.6935 28.1317 14.4833 28.5557 14.0904C28.9798 13.6975 29.2655 13.1766 29.4038 12.601C29.5328 12.1258 29.4591 11.6324 29.1918 11.2394C28.8784 10.8739 28.399 10.6638 27.9013 10.7186L27.2929 10.746ZM26.4449 9.74998H28.3437C29.2932 9.74998 29.9753 10.015 30.344 10.5632C30.7127 11.1115 30.8141 11.7877 30.6297 12.6558C30.4454 13.4965 30.0214 14.2549 29.3669 14.8214C28.8138 15.3697 28.0488 15.6804 27.256 15.6804H24.334L26.4449 9.74998Z" fill="#262626"/>
<path fill-rule="evenodd" clip-rule="evenodd" d="M24.8886 19.7284H25.5522C25.7642 19.7284 25.9763 19.6736 26.133 19.5456C26.262 19.4177 26.345 19.235 26.345 19.0522C26.345 18.8695 26.262 18.6867 26.133 18.5588C25.9763 18.4308 25.7642 18.376 25.5522 18.376H24.8886V19.7375V19.7284ZM24.8886 20.0939V21.6108H24.4922V18.0014H25.4416C25.7827 17.974 26.1053 18.0836 26.3911 18.2664C26.6307 18.4491 26.7598 18.7324 26.7321 19.0522C26.7321 19.3355 26.6307 19.6279 26.3911 19.8106C26.1237 20.0208 25.7827 20.0939 25.4416 20.0939H24.8886Z" fill="#262626"/>
<path fill-rule="evenodd" clip-rule="evenodd" d="M28.29 21.2452C28.5296 21.2452 28.7601 21.163 28.926 20.9803C29.1104 20.7975 29.1933 20.5599 29.1933 20.3223C29.1933 20.0848 29.1104 19.8289 28.926 19.6736C28.7693 19.4908 28.5296 19.3811 28.29 19.3811C28.0503 19.3811 27.8199 19.4908 27.654 19.6736C27.4696 19.8563 27.3866 20.0939 27.3866 20.3223C27.3866 20.5508 27.4696 20.8158 27.654 20.9803C27.8107 21.163 28.0503 21.2635 28.29 21.2452ZM28.29 21.6108C27.9489 21.6382 27.6079 21.4828 27.3682 21.2452C26.8981 20.7244 26.8981 19.9111 27.3682 19.3903C27.866 18.8968 28.6864 18.8968 29.1841 19.3903C29.6634 19.9111 29.6634 20.7244 29.1841 21.2452C28.9721 21.4828 28.631 21.6108 28.29 21.6108Z" fill="#262626"/>
<path fill-rule="evenodd" clip-rule="evenodd" d="M31.0819 20.9529L31.8009 18.97H32.0313L32.7503 20.9529L33.5154 18.9974H33.8565L32.8517 21.6108H32.6121L31.9023 19.6462L31.1925 21.6108H30.9529L29.9297 18.9974H30.3168L31.0819 20.9529Z" fill="#262626"/>
<path fill-rule="evenodd" clip-rule="evenodd" d="M36.0138 19.9934C35.9862 19.8655 35.9309 19.7284 35.8571 19.6279C35.7281 19.4725 35.5161 19.3629 35.3041 19.3903C35.0921 19.3903 34.9077 19.4999 34.7786 19.6553C34.6957 19.7649 34.6496 19.8929 34.5943 20.0208L36.0138 19.9934ZM34.539 20.3041C34.539 20.5416 34.6404 20.7701 34.8247 20.962C35.0091 21.1447 35.2488 21.2453 35.4884 21.2453C35.6451 21.2453 35.8018 21.2178 35.9401 21.163C36.0968 21.1082 36.2258 21.0351 36.3641 20.9254L36.4471 20.8432V21.2361H36.4194C36.2904 21.3366 36.1337 21.4463 35.9677 21.5011C35.47 21.6839 34.9446 21.5833 34.5482 21.2178C34.3085 20.9803 34.1795 20.6422 34.1795 20.2767C34.1518 19.9386 34.2809 19.6005 34.4929 19.3355C34.7049 19.0979 34.9907 18.97 35.3133 18.97C35.6267 18.9425 35.9493 19.0705 36.1521 19.308C36.3365 19.573 36.4471 19.8837 36.4471 20.1944V20.2492L34.5482 20.3041H34.539Z" fill="#262626"/>
<path fill-rule="evenodd" clip-rule="evenodd" d="M37.5989 19.3903C37.8109 18.9974 38.281 18.8694 38.6774 19.0796H38.705C38.705 19.0796 38.7327 19.0796 38.7327 19.107V19.5274C38.7327 19.5274 38.7327 19.5274 38.705 19.5274C38.0966 19.1893 37.7556 19.6827 37.6265 19.9934V21.6382H37.2578V19.0248H37.6265V19.3903H37.5989Z" fill="#262626"/>
<path fill-rule="evenodd" clip-rule="evenodd" d="M41.3978 18.3669H40.2363V18.0562H42.9464V18.3669H41.7941V21.556H41.3978V18.3669Z" fill="#262626"/>
<path fill-rule="evenodd" clip-rule="evenodd" d="M47.7206 18.4491V19.5731H49.1954V19.9112H47.7206V21.1905H49.4627V21.556H47.3242V18.0836H49.3798V18.4491H47.7206Z" fill="#262626"/>
<path fill-rule="evenodd" clip-rule="evenodd" d="M50.5129 19.3355C50.6973 19.1253 50.9646 18.9974 51.2504 18.9974C51.5177 18.9974 51.7481 19.0796 51.9325 19.2806C51.9878 19.3355 52.0431 19.4086 52.0892 19.4908L52.1445 19.4086C52.3288 19.171 52.6146 19.0156 52.9096 19.0156C53.1769 19.0156 53.4073 19.0979 53.5917 19.3081C53.776 19.4908 53.859 19.7558 53.859 20.0117V21.5559H53.4903V20.0117C53.4903 19.8289 53.435 19.6736 53.3336 19.5365C53.2322 19.4086 53.0663 19.3537 52.8819 19.3537C52.6699 19.3537 52.4579 19.4817 52.3288 19.6462C52.2735 19.701 52.2459 19.7467 52.1998 19.8015V21.5285H51.8311V19.9843C51.8311 19.8015 51.7758 19.6462 51.6744 19.5091C51.573 19.3812 51.4071 19.3263 51.2227 19.3263C51.0107 19.3263 50.7987 19.4543 50.6696 19.6096C50.6143 19.6644 50.5867 19.7193 50.5406 19.7649V21.492H50.1719V19.0065H50.5406V19.3172H50.5129V19.3355Z" fill="#262626"/>
<path d="M54.6797 19.0248H55.0484V19.3355C55.1314 19.2076 55.2604 19.0979 55.4171 19.0522C55.8872 18.8695 56.4219 18.97 56.7629 19.3172C57.2146 19.8655 57.2146 20.6513 56.7906 21.1996C56.3389 21.693 55.6568 21.5925 55.1037 21.3001L55.0761 21.2727V22.4697H54.7073L54.6797 19.0248ZM56.2098 19.4908C55.8964 19.2807 55.4448 19.3355 55.0484 19.8289V20.8524C55.4448 21.2727 55.9425 21.3001 56.2652 21.0625C56.6892 20.697 56.7353 20.0665 56.3665 19.6553C56.3389 19.5731 56.2836 19.5274 56.2098 19.5" fill="#262626"/>
<path d="M30.8518 16.2561H23.625V16.6764H30.8518V16.2561Z" fill="#262626"/>
<path d="M69.5484 16.256H36.6777V16.6764H69.5484V16.256Z" fill="#262626"/>
<path fill-rule="evenodd" clip-rule="evenodd" d="M43.9778 21.1904C44.2174 21.1904 44.4479 21.1082 44.6138 20.9255C44.7981 20.7427 44.8811 20.5051 44.8811 20.2767C44.8811 20.0482 44.7797 19.7832 44.6138 19.6005C44.4571 19.4177 44.2174 19.3355 43.9778 19.3355C43.7381 19.3355 43.5077 19.4177 43.3417 19.6005C43.1574 19.7832 43.0744 20.0208 43.0744 20.2767C43.0744 20.5143 43.1574 20.7701 43.3417 20.9255C43.4984 21.0808 43.7381 21.1904 43.9778 21.1904ZM43.9778 21.5285C43.6367 21.5285 43.2956 21.4006 43.056 21.163C42.8163 20.9255 42.6873 20.5874 42.6873 20.2218C42.6596 19.8837 42.7887 19.5457 43.056 19.2807C43.2956 19.0431 43.6367 18.8877 43.9778 18.9151C44.3188 18.9151 44.6599 19.0431 44.8719 19.2807C45.1115 19.5182 45.2406 19.8563 45.2406 20.2218C45.2406 20.5599 45.1115 20.898 44.8719 21.163C44.6322 21.4006 44.3188 21.5285 43.9778 21.5285Z" fill="#262626"/>
<path fill-rule="evenodd" clip-rule="evenodd" d="M58.8455 21.1904C59.0852 21.1904 59.3156 21.1082 59.4815 20.9255C59.6659 20.7427 59.7488 20.5051 59.7488 20.2767C59.7488 20.0482 59.6659 19.7832 59.4815 19.6005C59.1681 19.2624 58.615 19.235 58.2463 19.5731L58.2187 19.6005C58.0343 19.7832 57.9514 20.0208 57.9514 20.2767C57.9514 20.5143 58.0343 20.7701 58.2187 20.9255C58.403 21.0808 58.615 21.1904 58.8547 21.1904M58.8547 21.5285C58.5137 21.556 58.1726 21.4006 57.9329 21.163C57.6933 20.9255 57.5642 20.5874 57.5642 20.2218C57.5366 19.8837 57.6656 19.5457 57.9329 19.2807C58.1726 19.0431 58.5137 18.8877 58.8547 18.9151C59.1958 18.9151 59.5368 19.0431 59.7765 19.2807C60.0162 19.5457 60.1452 19.8563 60.1452 20.2218C60.1452 20.5599 60.0162 20.898 59.7765 21.163C59.5368 21.4006 59.2234 21.5285 58.8547 21.5285Z" fill="#262626"/>
<path fill-rule="evenodd" clip-rule="evenodd" d="M61.6397 20.9803L62.3494 18.9974H62.6167L63.3265 20.9803L64.0639 19.0248H64.4326L63.4371 21.6108H63.1975L62.4877 19.6736L61.7503 21.6108H61.5383L60.5059 19.0248H60.9022L61.6397 20.9803Z" fill="#262626"/>
<path fill-rule="evenodd" clip-rule="evenodd" d="M66.5986 19.9934C66.5709 19.8655 66.5156 19.7284 66.4419 19.6279C66.3128 19.4725 66.1008 19.3629 65.8888 19.3903C65.6768 19.3903 65.4924 19.5 65.3634 19.6553C65.2804 19.765 65.2067 19.8929 65.179 20.0208L66.5986 19.9934ZM65.1237 20.3041C65.1237 20.5417 65.2251 20.7701 65.4095 20.962C65.5938 21.1448 65.8335 21.2453 66.0732 21.2453C66.2299 21.2453 66.3866 21.2179 66.5248 21.163C66.6815 21.1082 66.8106 21.0351 66.9488 20.9255L67.0502 20.8432V21.2361H67.0226C66.8935 21.3366 66.7276 21.4463 66.5709 21.5011C66.0732 21.6839 65.5201 21.5834 65.1422 21.2179C64.9025 20.9803 64.7734 20.6422 64.7734 20.2767C64.7734 19.9386 64.8748 19.6005 65.0868 19.3355C65.5109 18.8603 66.2206 18.842 66.6907 19.2532C66.6907 19.2532 66.7092 19.2715 66.7461 19.3081C66.9581 19.5731 67.0595 19.8837 67.0318 20.1944V20.2493L65.1053 20.3041H65.1237Z" fill="#262626"/>
<path fill-rule="evenodd" clip-rule="evenodd" d="M68.1754 19.3629C68.3874 18.9974 68.8575 18.842 69.2538 19.0522C69.2538 19.0522 69.2815 19.0522 69.2815 19.0796V19.5L69.2538 19.4726C68.6455 19.1345 68.3044 19.6279 68.1754 19.9477V21.5925H67.8066V18.9791H68.1754V19.372V19.3629Z" fill="#262626"/>
</g>
<defs>
<clipPath id="clip0_853_8067">
<rect width="70" height="26.6" fill="white"/>
</clipPath>
</defs>
</svg>
